HIERARCHY
ROOT Hips
{
	OFFSET -3.958830 18.904000 13.208200
	CHANNELS 6 Xposition Yposition Zposition Zrotation Yrotation Xrotation 
	JOINT LHipJoint
	{
		OFFSET 0.000000 0.000000 0.000000
		CHANNELS 3 Zrotation Yrotation Xrotation
		JOINT LeftUpLeg
		{
			OFFSET 1.800000 -1.400000 0.085000
			CHANNELS 3 Zrotation Yrotation Xrotation
			JOINT LeftLeg
			{
				OFFSET 2.215000 -6.000000 0.000000
				CHANNELS 3 Zrotation Yrotation Xrotation
				JOINT LeftFoot
				{
					OFFSET 2.500000 -6.900000 0.000000
					CHANNELS 3 Zrotation Yrotation Xrotation
					JOINT LeftToeBase
					{
						OFFSET 0.200000 -0.500000 1.950000
						CHANNELS 3 Zrotation Yrotation Xrotation
						End Site
						{
							OFFSET 0.000000 0.000000 0.000000
						}
					}
				}
			}
		}
	}
	JOINT RHipJoint
	{
		OFFSET 0.000000 0.000000 0.000000
		CHANNELS 3 Zrotation Yrotation Xrotation
		JOINT RightUpLeg
		{
			OFFSET -1.800000 -1.400000 0.085000
			CHANNELS 3 Zrotation Yrotation Xrotation
			JOINT RightLeg
			{
				OFFSET -2.215000 -6.000000 0.000000
				CHANNELS 3 Zrotation Yrotation Xrotation
				JOINT RightFoot
				{
					OFFSET -2.500000 -6.900000 0.000000
					CHANNELS 3 Zrotation Yrotation Xrotation
					JOINT RightToeBase
					{
						OFFSET -0.200000 -0.500000 1.950000
						CHANNELS 3 Zrotation Yrotation Xrotation
						End Site
						{
							OFFSET 0.000000 0.000000 0.000000
						}
					}
				}
			}
		}
	}
	JOINT LowerBack
	{
		OFFSET 0.000000 0.000000 0.000000
		CHANNELS 3 Zrotation Yrotation Xrotation
		JOINT Spine
		{
			OFFSET -0.087000 1.940000 -0.288900
			CHANNELS 3 Zrotation Yrotation Xrotation
			JOINT Spine1
			{
				OFFSET 0.000000 1.950000 0.060000
				CHANNELS 3 Zrotation Yrotation Xrotation
				JOINT Neck
				{
					OFFSET 0.000000 0.000000 0.000000
					CHANNELS 3 Zrotation Yrotation Xrotation
					JOINT Neck1
					{
						OFFSET 0.000000 1.600000 0.340000
						CHANNELS 3 Zrotation Yrotation Xrotation
						JOINT Head
						{
							OFFSET 0.000000 1.667000 -0.240000
							CHANNELS 3 Zrotation Yrotation Xrotation
							End Site
							{
								OFFSET 0.000000 0.000000 0.000000
							}
						}
					}
				}
				JOINT LeftShoulder
				{
					OFFSET 0.000000 0.000000 0.000000
					CHANNELS 3 Zrotation Yrotation Xrotation
					JOINT LeftArm
					{
						OFFSET 2.700000 1.550000 -0.730000
						CHANNELS 3 Zrotation Yrotation Xrotation
						JOINT LeftForeArm
						{
							OFFSET 5.450000 0.000000 0.000000
							CHANNELS 3 Zrotation Yrotation Xrotation
							JOINT LeftHand
							{
								OFFSET 3.450000 0.000000 0.000000
								CHANNELS 3 Zrotation Yrotation Xrotation
								JOINT LeftHandIndex1
								{
									OFFSET 0.750000 0.000000 0.000000
									CHANNELS 3 Zrotation Yrotation Xrotation
									End Site
									{
										OFFSET 0.000000 0.000000 0.000000
									}
								}
							}
						}
					}
				}
				JOINT RightShoulder
				{
					OFFSET 0.000000 0.000000 0.000000
					CHANNELS 3 Zrotation Yrotation Xrotation
					JOINT RightArm
					{
						OFFSET -2.700000 1.550000 -0.730000
						CHANNELS 3 Zrotation Yrotation Xrotation
						JOINT RightForeArm
						{
							OFFSET -5.450000 0.000000 0.000000
							CHANNELS 3 Zrotation Yrotation Xrotation
							JOINT RightHand
							{
								OFFSET -3.450000 0.000000 0.000000
								CHANNELS 3 Zrotation Yrotation Xrotation
								JOINT RightHandIndex1
								{
									OFFSET -0.750000 0.000000 0.000000
									CHANNELS 3 Zrotation Yrotation Xrotation
									End Site
									{
										OFFSET 0.000000 0.000000 0.000000
									}
								}
							}
						}
					}
				}
			}
		}
	}
}
MOTION
Frames: 4
Frame Time: 0.016667
-1.765360 16.283060 -0.732850 -7.327371 -16.803965 -2.754070 -15.378043 11.183178 4.143194 4.246044 -8.160422 -35.964082 -9.851118 13.587756 43.852879 0.330896 8.862756 1.488771 0.192870 -0.249190 0.173450 18.411385 -8.628169 4.596166 -8.744253 12.747326 -36.084933 16.104023 -29.323932 76.978466 -2.838426 -14.802575 -0.272264 -0.148900 0.450430 0.326710 -3.578169 -1.701988 -9.275095 4.649105 1.055511 20.777104 -6.674732 2.737431 -0.680751 2.773977 -3.720458 -6.714112 -11.501599 7.430258 54.043295 0.991200 1.649840 3.856930 -20.077541 5.210919 -2.175456 -50.683077 -6.514948 -4.576968 -29.760697 -38.178568 7.652863 -3.785922 3.122771 0.583500 0.163620 -0.064860 0.185630 14.265585 -1.282553 2.297475 52.938737 1.711124 -9.143373 12.918457 29.435414 1.542983 2.267982 -1.304589 -0.250400 0.141180 0.099450 -0.104790 
-1.777250 16.273140 -0.732080 -7.434187 -16.612670 -4.097055 -15.407502 11.279128 4.142158 4.816237 -8.126328 -35.108488 -10.393882 14.201796 44.764447 0.382541 9.168466 1.392204 0.235650 -0.214480 0.241530 18.361867 -8.590152 4.599508 -9.965540 12.414654 -36.031303 16.369915 -29.829039 77.052889 -2.898427 -14.828222 -0.287979 -0.136970 0.416080 0.328860 -3.446486 -1.904618 -9.340159 3.767738 0.892593 22.651080 -6.271856 2.533241 -1.327740 2.885314 -3.557920 -6.976071 -11.543314 7.602798 56.575313 1.184000 1.670980 2.220770 -21.477313 4.160874 -2.113227 -49.179914 -6.297793 -4.808660 -29.375407 -38.245982 7.486785 -3.744832 3.058341 0.653640 0.118740 0.000740 0.188250 15.614566 -0.185187 2.485301 51.498453 1.893229 -9.066912 11.770918 29.233903 1.369602 2.274614 -1.239412 -0.254730 0.180030 0.073280 -0.119760 
-1.790810 16.261080 -0.715360 -8.339717 -16.962291 -5.645725 -15.395698 11.371515 4.130429 6.569206 -7.702877 -34.199035 -11.090554 15.295549 46.349923 0.446646 9.675610 1.205618 0.305280 -0.128920 0.304910 18.354546 -8.570617 4.590239 -10.774679 12.369738 -35.871858 16.157616 -29.800897 77.142929 -2.941585 -14.759558 -0.264373 -0.092610 0.356760 0.306990 -3.451533 -2.027316 -9.386976 4.215377 0.363905 24.847842 -6.534063 2.260696 -1.914166 3.060418 -3.787203 -7.223044 -12.563253 8.365831 59.675286 1.326810 1.637930 -0.288900 -23.743382 2.837418 -2.198673 -47.029046 -5.895810 -5.366042 -26.103579 -37.209051 6.076555 -3.681117 2.959490 0.731660 0.059260 0.072010 0.195090 17.521500 1.312915 2.760320 49.615564 2.032277 -9.152644 10.087554 29.222785 1.085088 2.256553 -1.168869 -0.257600 0.230840 0.039240 -0.139410 
-1.802690 16.255320 -0.689100 -9.402229 -17.518588 -6.615181 -15.353787 11.464529 4.083208 8.188389 -7.165748 -33.452335 -10.778670 15.839545 47.722995 0.512101 9.972603 1.079131 0.349190 -0.071630 0.329370 18.379055 -8.604453 4.588426 -11.638648 12.280377 -36.232577 15.741905 -29.031701 76.411217 -2.894153 -14.484440 -0.222198 -0.075300 0.306210 0.300770 -3.549132 -2.032144 -9.383154 5.146529 -0.310103 26.306770 -7.305021 1.812554 -3.055351 3.132790 -4.322470 -7.426914 -14.341721 9.932723 62.827127 2.520680 1.225610 -0.928750 -25.814230 2.239677 -2.406504 -44.845305 -5.427396 -5.444822 -22.197545 -34.417156 4.396338 -3.622945 2.920523 0.763570 0.002640 0.122630 0.196770 19.355195 2.141450 2.933171 48.280281 1.812166 -9.305063 8.347421 29.391754 0.810465 2.272237 -1.138038 -0.229730 0.230940 0.018020 -0.132770 
